<?xml version="1.0" standalone="no"?>
<!DOCTYPE svg PUBLIC "-//W3C//DTD SVG 20010904//EN"
 "http://www.w3.org/TR/2001/REC-SVG-20010904/DTD/svg10.dtd">
<svg version="1.0" xmlns="http://www.w3.org/2000/svg"
 width="124.000000pt" height="124.000000pt" viewBox="0 0 124.000000 124.000000"
 preserveAspectRatio="xMidYMid meet">
<metadata>
Created by potrace 1.14, written by Peter Selinger 2001-2017
</metadata>
<g transform="translate(0.000000,124.000000) scale(0.100000,-0.100000)"
fill="#000000" stroke="none">
<path d="M561 1157 c-13 -21 -12 -21 5 -5 10 10 16 20 13 22 -3 3 -11 -5 -18
-17z"/>
<path d="M690 1158 c15 -18 12 -32 -3 -19 -11 8 -13 6 -13 -11 1 -16 -7 -24
-29 -29 -38 -11 -60 -52 -42 -80 14 -23 42 -26 33 -4 -3 8 -1 15 4 15 6 0 10
-5 10 -11 0 -19 28 10 33 34 3 17 5 14 6 -8 1 -33 39 -59 69 -48 12 4 14 3 7
-6 -6 -6 -34 -12 -63 -13 -51 -3 -74 -17 -29 -19 23 -1 18 -4 -24 -13 -21 -5
-26 -11 -25 -35 1 -16 4 -27 8 -25 4 2 10 -1 14 -7 4 -8 3 -9 -5 -5 -6 4 -14
0 -18 -11 -4 -10 -11 -21 -16 -24 -6 -4 -6 -15 -2 -25 5 -11 7 -22 7 -26 -3
-11 6 -10 29 2 12 7 19 7 19 1 0 -6 8 -8 18 -5 13 5 14 4 3 -4 -7 -5 -21 -8
-30 -5 -10 2 -23 -3 -31 -12 -18 -21 -23 -68 -7 -59 7 3 3 -1 -8 -10 -11 -8
-26 -20 -33 -26 -7 -6 -21 -12 -32 -13 -10 -1 -17 -4 -14 -8 2 -4 -6 -11 -18
-15 l-21 -6 21 -12 c17 -9 73 -12 150 -7 8 1 12 7 9 14 -2 7 -15 11 -30 9 -15
-2 -27 1 -27 7 0 6 -5 11 -11 11 -6 0 -8 -7 -5 -16 3 -8 2 -12 -4 -9 -5 3 -8
16 -6 28 3 12 5 24 5 26 1 3 6 0 13 -7 17 -17 33 -15 18 2 -9 12 -8 15 9 13
12 -1 21 -4 21 -8 0 -3 9 -16 19 -28 11 -13 22 -28 24 -34 2 -7 13 -6 34 3 25
11 31 19 28 40 -2 14 -4 28 -4 32 -1 4 -11 16 -23 28 -22 20 -22 21 -5 50 10
17 19 50 21 75 1 29 9 53 22 65 17 17 71 31 117 31 9 0 17 4 17 9 0 5 6 7 13
4 17 -6 41 21 32 37 -4 6 -2 15 4 19 9 5 8 11 -4 24 -16 16 -10 21 23 17 6 -1
12 3 12 9 0 5 -5 9 -12 7 -7 -1 -12 3 -13 10 0 6 -4 15 -9 20 -5 4 -6 3 -3 -3
7 -11 -19 -29 -36 -25 -5 1 -6 -3 -3 -8 6 -10 -31 -27 -48 -23 -4 2 -19 -4
-32 -13 -22 -14 -23 -14 -17 2 5 15 3 16 -8 6 -20 -20 -33 -15 -13 4 12 12 13
18 4 21 -7 3 -17 -2 -22 -9 -8 -11 -9 -10 -4 4 4 12 -1 20 -18 27 -13 5 -27
14 -31 20 -6 9 -10 9 -17 -1 -7 -11 -8 -9 -6 6 2 11 14 25 28 32 22 11 23 13
5 13 -12 0 -26 5 -33 10 -9 7 -9 7 -2 -2z m-20 -432 c0 -2 -6 -9 -14 -15 -11
-9 -16 -9 -22 0 -4 7 -3 9 4 5 6 -3 13 -2 17 4 6 10 15 14 15 6z m40 -56 c0
-5 -4 -10 -9 -10 -6 0 -13 5 -16 10 -3 6 1 10 9 10 9 0 16 -4 16 -10z"/>
<path d="M785 1160 c6 -9 2 -10 -16 -5 -30 9 -23 3 18 -18 31 -15 32 -15 23 3
-6 10 -15 22 -22 26 -7 5 -8 3 -3 -6z"/>
<path d="M472 1134 c-7 -8 -16 -13 -20 -11 -8 4 -56 -42 -61 -58 -8 -24 -22
-58 -26 -66 -3 -4 14 2 37 14 24 12 48 21 53 22 6 0 9 8 7 18 -2 9 5 33 14 52
18 39 16 51 -4 29z"/>
<path d="M514 1135 c8 -8 17 -15 20 -15 3 0 3 7 0 15 -4 8 -13 15 -21 15 -12
0 -12 -2 1 -15z"/>
<path d="M563 1015 c-10 -10 -9 -16 4 -27 14 -11 16 -11 8 2 -8 13 -7 13 9 0
16 -13 18 -12 14 10 -4 28 -18 34 -35 15z"/>
<path d="M429 1003 c-13 -16 -12 -17 4 -4 9 7 17 15 17 17 0 8 -8 3 -21 -13z"/>
<path d="M668 993 c7 -3 16 -2 19 1 4 3 -2 6 -13 5 -11 0 -14 -3 -6 -6z"/>
<path d="M1000 980 c0 -5 -8 -7 -17 -4 -11 4 -14 2 -8 -3 6 -4 11 -17 13 -28
2 -19 2 -19 -9 -2 -8 13 -14 15 -23 8 -7 -6 -34 -18 -61 -25 -26 -8 -57 -23
-68 -33 -19 -16 -20 -16 -8 0 7 9 10 17 5 17 -17 -1 -39 -26 -51 -57 l-11 -33
31 16 32 16 -28 -24 c-15 -13 -32 -38 -37 -57 l-10 -35 46 48 c41 41 48 45 63
33 28 -24 49 -27 54 -9 3 9 5 4 6 -12 1 -37 11 -28 16 15 3 18 -1 40 -7 48 -7
9 -8 13 -4 9 5 -4 15 -3 22 3 8 7 14 6 20 -2 5 -8 3 -9 -6 -4 -8 5 -11 4 -7
-2 10 -15 59 -3 81 20 19 19 19 19 -5 12 l-24 -8 25 21 c14 12 20 21 13 22 -7
0 -10 6 -7 14 4 11 0 13 -15 9 -16 -4 -19 -1 -14 16 3 12 3 21 -1 21 -3 0 -6
-4 -6 -10z m9 -107 c2 -2 -3 -3 -11 -3 -9 0 -19 7 -22 16 -6 15 -4 15 11 3 10
-7 20 -15 22 -16z"/>
<path d="M385 934 c-20 -38 -11 -62 21 -50 16 6 16 7 -1 20 -15 11 -16 16 -5
35 6 13 10 24 8 26 -2 3 -12 -11 -23 -31z"/>
<path d="M530 920 c6 -11 12 -20 14 -20 2 0 2 9 -1 20 -3 11 -9 20 -15 20 -5
0 -4 -9 2 -20z"/>
<path d="M766 894 c-9 -8 -16 -23 -16 -31 0 -9 1 -14 3 -12 15 21 37 59 33 59
-3 0 -12 -7 -20 -16z"/>
<path d="M285 890 c-4 -6 -9 -8 -13 -6 -4 2 -8 -16 -10 -40 -2 -32 2 -44 12
-44 10 0 15 15 18 50 3 53 3 56 -7 40z"/>
<path d="M602 870 c0 -14 2 -19 5 -12 2 6 2 18 0 25 -3 6 -5 1 -5 -13z"/>
<path d="M807 778 c-21 -22 -36 -47 -33 -54 3 -7 1 -16 -3 -19 -11 -6 -2 -45
10 -45 5 0 9 -7 9 -15 0 -8 5 -15 11 -15 7 0 9 11 6 30 -4 17 -2 30 3 30 6 0
9 -3 8 -7 -1 -5 1 -18 5 -29 7 -19 12 -20 50 -13 23 4 46 8 51 9 6 0 1 7 -10
16 -10 8 -13 13 -6 9 6 -3 12 0 12 7 0 10 3 9 11 -2 9 -12 9 -11 3 5 -4 11 -8
29 -8 40 -1 11 -19 37 -41 57 l-40 36 -38 -40z"/>
<path d="M590 774 c-6 -14 -10 -28 -10 -32 1 -10 24 31 26 46 4 21 -6 13 -16
-14z"/>
<path d="M239 777 c7 -7 7 -15 -2 -26 -10 -12 -9 -13 3 -6 12 6 13 5 3 -6 -15
-15 -18 -33 -5 -25 5 3 9 -1 9 -9 0 -8 -4 -12 -9 -9 -4 3 -5 -2 -2 -10 6 -15
18 -20 37 -17 4 1 3 -7 -2 -18 -6 -10 -7 -22 -3 -26 4 -3 3 -6 -3 -5 -18 4
-35 0 -35 -8 0 -4 16 -6 35 -4 25 3 35 9 35 22 0 32 24 42 59 24 37 -18 84
-13 113 13 28 25 21 37 -8 14 -41 -32 -86 -27 -130 14 -27 25 -35 40 -31 56 5
17 2 20 -14 16 -13 -4 -19 -1 -16 6 3 7 -6 13 -20 14 -18 1 -22 -2 -14 -10z"/>
<path d="M518 744 c-10 -19 -14 -34 -9 -34 9 0 36 58 30 64 -2 2 -12 -11 -21
-30z"/>
<path d="M940 763 c0 -7 4 -13 10 -13 5 0 7 -7 4 -15 -4 -10 0 -15 11 -15 9 0
14 -4 11 -9 -3 -4 1 -17 9 -27 12 -16 16 -17 27 -5 11 12 10 13 -6 7 -13 -4
-17 -2 -13 8 3 7 -8 29 -23 47 -16 19 -29 28 -30 22z"/>
<path d="M561 707 c-13 -21 -12 -21 5 -5 10 10 16 20 13 22 -3 3 -11 -5 -18
-17z"/>
<path d="M1126 658 c3 -5 10 -6 15 -3 13 9 11 12 -6 12 -8 0 -12 -4 -9 -9z"/>
<path d="M326 624 c-4 -9 -4 -19 -1 -22 9 -9 56 18 50 28 -10 16 -42 12 -49
-6z"/>
<path d="M1167 633 c-4 -3 -8 -20 -8 -37 -1 -24 -3 -26 -6 -8 -6 30 -35 44
-86 40 l-42 -3 1 -40 c1 -70 14 -179 22 -186 9 -9 71 2 96 17 16 10 19 22 17
69 -1 32 -4 63 -8 69 -4 8 -3 8 5 1 7 -6 12 -24 13 -40 2 -49 10 -66 27 -63
15 3 18 45 7 138 -1 14 -3 31 -4 38 -1 13 -23 16 -34 5z m-71 -51 c14 -9 25
-115 13 -133 -15 -24 -27 3 -34 74 -7 64 -3 75 21 59z"/>
<path d="M890 601 c-4 -8 -10 -10 -13 -3 -6 9 -71 7 -124 -4 -28 -5 -24 -40 5
-36 28 4 33 -7 38 -95 6 -88 7 -92 34 -90 19 1 20 6 14 77 -10 105 -10 105 -4
106 3 0 15 6 28 13 21 11 22 10 23 -21 1 -18 2 -44 4 -58 2 -14 4 -42 6 -62 4
-44 15 -49 79 -40 33 5 46 12 48 26 4 17 -1 18 -37 13 -23 -3 -41 -2 -42 1 0
4 -2 15 -4 25 -3 14 32 46 43 39 10 -7 20 1 18 16 -2 12 -11 17 -34 15 -19 -1
-32 3 -33 10 0 7 -2 20 -4 30 -3 14 4 17 34 17 30 0 37 4 37 20 0 19 -6 21
-54 18 -33 -2 -57 -8 -62 -17z"/>
<path d="M140 594 c0 -1 6 -7 14 -13 10 -9 15 -8 19 2 3 8 -3 13 -14 13 -11 0
-19 -1 -19 -2z"/>
<path d="M402 593 l-33 -4 6 -77 c4 -42 8 -83 10 -89 3 -7 0 -13 -5 -13 -6 0
-10 22 -10 50 0 90 -36 126 -116 116 -21 -2 -43 -5 -48 -5 -7 -1 -4 -68 9
-166 1 -11 3 -41 4 -66 1 -55 10 -60 77 -48 57 10 84 37 85 83 0 26 2 28 8 11
5 -11 6 -32 4 -48 -6 -36 12 -42 78 -28 73 16 80 29 73 131 -3 47 -10 97 -16
112 -13 36 -55 49 -126 41z m72 -61 c3 -5 8 -43 12 -85 6 -66 4 -78 -10 -83
-27 -10 -29 -5 -40 114 -6 57 -5 62 13 62 11 0 22 -4 25 -8z m-164 -35 c0 -7
3 -42 6 -79 6 -59 4 -68 -10 -68 -9 0 -19 -1 -23 -2 -5 -2 -9 12 -10 29 -1 18
-6 56 -12 85 -9 40 -9 53 1 59 15 9 48 -7 48 -24z"/>
<path d="M631 564 c-11 -15 -18 -30 -16 -34 3 -5 1 -11 -4 -14 -5 -4 -8 5 -7
18 4 34 -8 49 -32 42 -14 -5 -19 -13 -17 -28 3 -11 7 -53 11 -92 10 -102 9
-101 30 -101 13 0 21 9 25 30 4 17 7 22 8 13 1 -20 38 -48 63 -48 22 0 58 34
58 55 0 18 -31 20 -48 3 -19 -19 -30 1 -37 70 -5 49 -4 62 7 62 8 0 19 -5 25
-11 7 -7 19 -9 27 -6 22 9 1 53 -28 61 -35 10 -44 7 -65 -20z m-6 -73 c3 -5 1
-12 -5 -16 -5 -3 -10 1 -10 9 0 18 6 21 15 7z"/>
<path d="M75 550 c-2 -3 -6 -30 -9 -60 -3 -30 -8 -64 -10 -75 -10 -56 -16
-159 -8 -146 8 11 10 11 14 0 7 -22 38 -2 38 26 0 35 37 35 50 -1 14 -35 56
-31 52 6 -4 35 -7 51 -21 84 -6 16 -14 45 -17 65 -11 69 -32 107 -60 107 -14
0 -27 -3 -29 -6z m48 -147 c5 -23 3 -33 -6 -33 -9 0 -12 11 -9 36 5 41 7 40
15 -3z"/>
<path d="M700 480 c0 -5 7 -10 15 -10 8 0 15 5 15 10 0 6 -7 10 -15 10 -8 0
-15 -4 -15 -10z"/>
<path d="M742 485 c4 -4 3 -14 -4 -22 -8 -11 -7 -12 6 -7 19 7 21 20 4 30 -7
4 -10 4 -6 -1z"/>
<path d="M16 415 c-9 -26 -7 -32 5 -12 6 10 9 21 6 23 -2 3 -7 -2 -11 -11z"/>
<path d="M1184 414 c3 -9 6 -17 6 -20 0 -2 7 -1 15 2 23 9 18 34 -6 34 -15 0
-19 -4 -15 -16z"/>
<path d="M12 350 c0 -14 2 -19 5 -12 2 6 2 18 0 25 -3 6 -5 1 -5 -13z"/>
<path d="M751 346 c-6 -7 -9 -22 -5 -32 5 -16 4 -16 -5 -4 -6 9 -22 14 -41 12
-17 -2 -38 2 -46 9 -12 10 -13 9 -8 -5 3 -9 2 -16 -2 -16 -5 0 -9 -14 -10 -30
-1 -17 3 -30 8 -30 5 0 6 -5 3 -10 -4 -7 -12 -7 -24 0 -11 6 -30 6 -49 1 -17
-5 -33 -7 -36 -3 -3 3 -6 2 -6 -1 0 -14 81 -57 107 -57 39 -1 66 -22 50 -40
-10 -10 -9 -11 3 -4 8 5 17 9 20 10 3 0 22 8 42 17 47 21 54 21 37 0 -13 -16
-12 -17 3 -5 10 8 16 17 15 20 -1 4 9 35 22 69 24 63 22 100 -3 90 -8 -3 -22
1 -33 8 -23 18 -28 18 -42 1z m84 -26 c-3 -5 -11 -10 -16 -10 -6 0 -7 5 -4 10
3 6 11 10 16 10 6 0 7 -4 4 -10z m-45 -25 c-7 -8 -20 -15 -29 -15 -11 1 -8 5
9 15 32 18 35 18 20 0z m-63 -29 c-15 -16 -67 -27 -67 -15 0 5 6 9 14 9 8 0
16 6 19 14 4 9 14 12 26 9 16 -4 18 -8 8 -17z"/>
<path d="M935 350 c-3 -5 -1 -10 4 -10 6 0 11 5 11 10 0 6 -2 10 -4 10 -3 0
-8 -4 -11 -10z"/>
<path d="M880 340 c0 -13 11 -13 30 0 12 8 11 10 -7 10 -13 0 -23 -4 -23 -10z"/>
<path d="M539 298 c-16 -10 -29 -23 -29 -28 0 -6 -4 -9 -9 -6 -5 4 -8 -2 -7
-11 2 -9 9 -19 17 -21 11 -3 11 -1 1 5 -9 7 -7 14 10 30 19 18 26 20 40 9 10
-7 15 -16 11 -19 -3 -4 -1 -7 5 -7 19 0 23 18 5 24 -14 6 -14 8 3 20 10 8 23
12 28 9 5 -4 6 -1 2 5 -9 15 -43 11 -77 -10z"/>
<path d="M613 275 c-3 -9 -3 -18 -1 -21 3 -3 8 4 11 16 6 23 -1 27 -10 5z"/>
<path d="M536 273 c-11 -11 -6 -23 9 -23 8 0 15 4 15 9 0 13 -16 22 -24 14z"/>
<path d="M874 248 l-19 -23 23 19 c21 18 27 26 19 26 -2 0 -12 -10 -23 -22z"/>
<path d="M147 239 c7 -7 15 -10 18 -7 3 3 -2 9 -12 12 -14 6 -15 5 -6 -5z"/>
<path d="M900 230 c-9 -6 -10 -10 -3 -10 6 0 15 5 18 10 8 12 4 12 -15 0z"/>
<path d="M48 223 c7 -3 16 -2 19 1 4 3 -2 6 -13 5 -11 0 -14 -3 -6 -6z"/>
<path d="M834 204 c-18 -14 -18 -15 4 -4 12 6 22 13 22 15 0 8 -5 6 -26 -11z"/>
</g>
</svg>
